 <svg  version="1.0" xmlns="http://www.w3.org/2000/svg"  width="300.000000pt" height="301.000000pt" viewBox="0 0 300.000000 301.000000"  preserveAspectRatio="xMidYMid meet">  <g transform="translate(0.000000,301.000000) scale(0.100000,-0.100000)" fill="#ee2020" stroke="none"> <path d="M1380 2989 c-342 -20 -690 -175 -943 -418 -75 -71 -185 -206 -234 -286 -86 -138 -174 -364 -190 -485 -9 -71 12 -37 42 68 140 488 473 842 960 1020 137 50 300 75 485 75 247 0 457 -47 665 -151 358 -178 631 -491 750 -862 59 -182 69 -207 73 -187 12 56 -65 289 -144 435 -61 115 -68 125 -150 227 -123 154 -263 273 -439 374 -84 48 -277 131 -307 131 -7 0 -41 9 -76 20 -59 19 -163 34 -297 43 -33 2 -121 1 -195 -4z"/> <path d="M1415 2553 c-87 -9 -217 -38 -269 -59 -33 -13 -64 -24 -70 -24 -6 0 -49 -23 -95 -50 -46 -28 -86 -50 -88 -50 -12 0 -154 -124 -192 -167 -178 -203 -274 -460 -266 -718 10 -336 157 -619 425 -817 202 -149 427 -216 683 -205 226 11 383 61 567 182 127 84 309 292 350 400 6 16 18 43 25 60 22 46 55 155 55 181 0 12 4 25 8 28 11 7 17 87 16 221 -2 320 -178 643 -449 828 -129 87 -288 152 -435 176 -70 12 -216 19 -265 14z m283 -49 c328 -58 625 -295 757 -603 107 -250 106 -548 -1 -793 -113 -255 -329 -458 -596 -558 -96 -36 -243 -60 -362 -60 -482 1 -901 330 -1008 793 -30 128 -30 316 0 444 41 179 139 355 269 487 247 250 584 354 941 290z"/> <path d="M1384 2396 c-94 -44 -175 -135 -249 -279 -31 -60 -37 -79 -27 -86 14 -9 237 -31 310 -31 l42 0 0 210 c0 161 -3 210 -12 210 -7 0 -36 -11 -64 -24z m44 -176 c4 -204 9 -193 -91 -186 -135 11 -178 18 -184 32 -6 16 54 123 105 187 43 54 129 119 152 115 12 -3 15 -28 18 -148z"/> <path d="M1540 2209 l0 -211 118 7 c64 4 144 10 177 14 56 6 60 8 57 31 -4 40 -92 187 -149 250 -50 55 -153 120 -190 120 -10 0 -13 -41 -13 -211z m117 125 c28 -20 70 -60 92 -89 50 -65 105 -170 97 -183 -6 -10 -70 -20 -183 -28 -57 -4 -78 -2 -84 8 -10 15 -12 312 -2 321 12 13 28 7 80 -29z"/> <path d="M1112 2315 c-39 -19 -99 -52 -131 -75 -64 -43 -171 -137 -171 -150 0 -5 33 -15 73 -23 132 -28 137 -28 143 -9 23 74 110 228 153 271 29 29 17 26 -67 -14z m-70 -145 c-26 -56 -44 -82 -58 -86 -24 -6 -104 13 -104 25 0 21 152 139 182 140 14 1 10 -13 -20 -79z"/> <path d="M1837 2306 c36 -40 119 -193 137 -248 6 -19 11 -19 144 9 39 8 72 18 72 21 0 13 -109 110 -166 149 -62 42 -161 95 -204 108 -21 7 -19 2 17 -39z m173 -97 c61 -42 117 -96 108 -105 -11 -11 -90 -25 -107 -19 -13 5 -91 149 -91 169 0 10 34 -7 90 -45z"/> <path d="M686 1908 c-44 -89 -96 -260 -96 -317 l0 -26 169 0 169 0 7 70 c8 83 40 273 50 298 6 13 2 17 -16 17 -13 0 -69 11 -124 25 -55 14 -103 25 -106 25 -4 0 -27 -42 -53 -92z m161 34 c40 -10 78 -23 84 -29 9 -9 8 -37 -4 -115 -9 -57 -19 -124 -22 -150 -4 -31 -11 -48 -22 -50 -8 -2 -69 -2 -134 0 l-119 3 0 34 c0 70 87 294 124 317 14 10 8 10 93 -10z"/> <path d="M2150 1974 c-47 -12 -98 -23 -114 -23 -23 -1 -27 -4 -21 -18 13 -35 55 -306 55 -358 0 -6 59 -10 171 -10 l171 0 -6 46 c-19 142 -119 391 -155 388 -9 -1 -54 -12 -101 -25z m131 -69 c36 -65 89 -225 89 -270 0 -40 14 -37 -160 -35 -57 1 -106 3 -108 5 -4 3 -26 155 -38 262 l-7 52 39 9 c22 6 57 15 79 20 64 16 76 11 106 -43z"/> <path d="M1051 1884 c-16 -68 -41 -242 -41 -284 l0 -35 225 0 225 0 0 165 0 166 -157 12 c-87 7 -177 16 -199 19 l-41 5 -12 -48z m254 -8 l120 -11 0 -130 0 -130 -124 -5 c-180 -7 -249 -2 -253 18 -5 23 20 216 32 247 11 29 29 30 225 11z"/> <path d="M1765 1915 c-66 -7 -144 -13 -172 -14 l-53 -1 0 -167 0 -168 225 0 225 0 0 30 c0 34 -24 203 -41 283 -12 60 6 56 -184 37z m159 -62 c12 -56 26 -169 26 -210 l0 -43 -87 -1 c-149 -3 -278 2 -286 10 -4 4 -6 64 -5 132 l3 124 155 16 c85 8 163 12 172 7 9 -4 19 -20 22 -35z"/> <path d="M595 1394 c16 -131 112 -372 146 -367 8 1 66 13 129 26 86 18 114 28 111 38 -12 42 -31 157 -42 252 l-12 107 -170 0 -169 0 7 -56z m300 14 c4 -4 45 -273 45 -295 0 -7 -17 -15 -37 -19 -21 -3 -60 -12 -87 -20 -34 -10 -54 -11 -67 -3 -36 19 -119 236 -119 311 0 23 5 27 33 30 42 4 227 1 232 -4z"/> <path d="M1010 1415 c0 -42 28 -236 41 -289 10 -36 12 -38 42 -32 36 8 260 25 325 26 l42 0 0 165 0 165 -225 0 -225 0 0 -35z m409 -9 c8 -9 11 -53 9 -132 l-3 -119 -85 -7 c-47 -3 -122 -9 -168 -13 l-82 -6 -10 27 c-6 14 -17 74 -25 133 -14 97 -14 107 1 118 25 18 348 18 363 -1z"/> <path d="M1540 1286 l0 -164 138 -7 c75 -3 163 -11 196 -16 32 -6 60 -8 63 -5 12 12 52 257 53 324 l0 32 -225 0 -225 0 0 -164z m394 125 c18 -1 19 -7 12 -88 -3 -49 -12 -110 -19 -138 l-13 -50 -45 0 c-78 1 -266 14 -283 21 -14 6 -16 22 -14 128 l3 121 80 5 c67 4 205 5 279 1z"/> <path d="M2070 1433 c-2 -53 -39 -298 -50 -327 -11 -31 -12 -30 75 -46 33 -5 84 -17 114 -25 30 -8 58 -12 61 -10 4 3 26 42 48 89 42 85 76 198 88 287 l7 49 -172 0 c-156 0 -171 -2 -171 -17z m208 -22 l92 -1 0 -28 c0 -66 -79 -282 -113 -311 -8 -6 -28 -6 -57 0 -25 5 -61 12 -80 15 -53 10 -62 21 -55 68 3 23 12 87 19 143 8 56 16 106 20 111 3 5 22 8 43 6 21 -2 80 -3 131 -3z"/> <path d="M1206 1009 c-60 -5 -111 -11 -114 -13 -8 -9 79 -175 123 -235 23 -32 62 -74 87 -94 39 -32 126 -77 149 -77 5 0 9 91 9 215 l0 215 -72 -1 c-40 -1 -122 -6 -182 -10z m222 -198 l2 -173 -27 7 c-66 16 -168 124 -230 243 -24 46 -31 68 -23 76 11 11 137 23 225 22 l50 -1 3 -174z"/> <path d="M1540 806 c0 -133 4 -216 10 -216 5 0 35 11 65 25 100 44 215 184 274 332 l20 51 -57 6 c-31 3 -114 9 -184 12 l-128 7 0 -217z m293 168 c28 -9 20 -44 -31 -126 -55 -90 -107 -148 -164 -184 -65 -42 -68 -36 -68 144 0 113 4 162 13 171 9 9 39 11 122 6 61 -4 118 -9 128 -11z"/> <path d="M891 959 c-46 -10 -86 -21 -89 -24 -7 -7 93 -102 155 -147 26 -20 79 -52 118 -73 116 -62 138 -66 93 -15 -49 55 -115 170 -138 243 -14 43 -16 43 -139 16z m145 -109 c23 -47 38 -87 32 -89 -23 -8 -202 132 -195 154 4 11 59 24 97 21 21 -1 32 -15 66 -86z"/> <path d="M1969 943 c-18 -57 -74 -160 -120 -221 -22 -29 -39 -55 -36 -58 6 -6 145 67 208 109 66 44 186 154 177 162 -5 5 -189 45 -208 45 -5 0 -14 -17 -21 -37z m144 -19 c27 -8 21 -20 -41 -72 -69 -57 -128 -95 -141 -90 -6 2 9 43 32 91 l42 88 45 -6 c25 -3 53 -8 63 -11z"/> <path d="M2495 2319 c-50 -31 -105 -78 -105 -89 0 -5 22 -33 75 -92 8 -10 15 -26 15 -36 0 -17 34 -62 46 -62 9 0 116 71 141 93 18 16 20 24 12 45 -13 33 -26 42 -66 42 -31 0 -32 1 -23 26 15 38 12 62 -10 84 -25 25 -26 25 -85 -11z m79 -14 c13 -19 13 -26 3 -32 -19 -12 -60 -83 -53 -90 4 -4 30 -2 59 4 48 11 53 10 70 -10 15 -16 16 -22 5 -25 -22 -7 -112 -66 -124 -81 -10 -12 -13 -11 -23 7 -14 26 -14 32 2 32 6 0 30 12 52 26 l40 25 -73 -6 -74 -7 25 38 c13 22 30 50 37 63 l12 24 -33 -23 c-19 -13 -39 -30 -46 -38 -10 -12 -15 -13 -28 -2 -22 18 -19 23 25 43 21 10 51 31 67 46 35 36 37 36 57 6z"/> <path d="M338 2132 c-17 -2 -38 -16 -52 -35 -28 -38 -51 -109 -43 -132 9 -21 150 -87 171 -79 22 8 32 52 17 75 -15 25 -15 26 19 33 59 11 63 86 5 86 -12 0 -30 9 -41 21 -25 28 -44 35 -76 31z m40 -34 c7 -7 12 -20 12 -30 0 -21 39 -25 71 -8 14 8 19 7 19 -2 0 -27 -19 -40 -59 -42 -46 -3 -46 -3 -55 -33 -5 -17 -2 -23 16 -29 13 -4 29 -7 35 -6 10 2 10 -3 2 -21 l-11 -24 -61 33 c-34 19 -70 34 -80 34 -15 0 -12 10 18 70 28 56 40 70 58 70 13 0 28 -5 35 -12z"/> <path d="M310 2040 l-20 -39 21 -11 c24 -13 21 -15 43 28 10 19 15 40 12 48 -10 26 -35 14 -56 -26z"/> <path d="M2638 2006 c-32 -12 -66 -30 -75 -39 -16 -16 -16 -20 -3 -45 21 -36 37 -37 103 -7 31 14 60 25 66 25 6 0 18 11 27 25 16 24 16 27 -1 45 -22 25 -44 24 -117 -4z m101 -8 c7 -20 2 -24 -56 -44 -35 -12 -71 -28 -79 -35 -17 -14 -19 -12 -28 19 -6 17 -3 22 11 22 24 0 110 33 125 48 16 16 17 15 27 -10z"/> <path d="M2725 1839 c-114 -27 -115 -28 -115 -59 0 -20 8 -35 24 -45 23 -16 24 -17 9 -44 -11 -18 -14 -37 -9 -55 6 -26 10 -28 39 -22 18 4 54 8 81 10 71 4 90 30 81 111 -7 61 -31 109 -56 112 -8 0 -32 -3 -54 -8z m79 -55 c11 -80 7 -121 -10 -128 -28 -11 -53 -6 -63 12 -10 15 -14 14 -41 -15 -16 -18 -32 -33 -35 -33 -3 0 -5 14 -5 32 0 17 3 28 7 25 13 -14 53 36 53 66 0 26 -3 28 -24 23 -13 -3 -31 -8 -39 -12 -10 -3 -16 3 -19 20 -4 19 -1 25 11 23 29 -3 131 14 136 24 13 20 23 7 29 -37z"/> <path d="M2735 1748 c11 -58 16 -68 30 -68 21 0 26 15 19 59 -6 35 -10 41 -31 41 -22 0 -24 -3 -18 -32z"/> <path d="M295 1819 c-16 -5 -49 -13 -71 -19 -32 -8 -45 -17 -54 -39 -15 -38 -5 -54 76 -111 72 -51 93 -55 111 -21 10 21 9 30 -5 53 -16 27 -15 29 11 56 59 62 21 107 -68 81z m78 -33 c-4 -18 -13 -26 -31 -28 -21 -2 -28 -10 -33 -38 -7 -35 5 -65 22 -54 5 3 9 -9 9 -25 0 -17 -1 -31 -3 -31 -2 0 -26 20 -53 45 -27 25 -60 51 -75 57 -20 9 -24 17 -21 38 3 21 8 26 25 23 12 -2 51 5 87 16 36 10 68 19 71 20 3 0 4 -10 2 -23z"/> <path d="M246 1741 c-17 -7 -17 -8 7 -24 27 -17 37 -14 37 15 0 19 -12 22 -44 9z"/> <path d="M226 1539 c-68 -11 -86 -32 -92 -109 -7 -97 5 -110 110 -110 111 0 121 10 112 112 -4 40 -12 78 -17 84 -18 22 -63 30 -113 23z m88 -35 c12 -11 16 -35 16 -87 l0 -72 -85 0 -85 0 0 66 c0 81 14 105 58 96 17 -4 34 -2 37 3 9 15 42 12 59 -6z"/> <path d="M260 1470 c-6 -11 -8 -36 -4 -55 5 -28 11 -35 30 -35 22 0 24 4 24 43 0 60 -29 87 -50 47z"/> <path d="M189 1468 c-7 -77 -4 -88 19 -88 21 0 23 4 20 47 -2 36 -7 49 -20 51 -10 2 -19 -2 -19 -10z"/> <path d="M2640 1521 c-5 -11 -10 -51 -10 -90 0 -62 3 -72 22 -82 19 -10 25 -8 44 15 13 14 26 26 29 26 4 0 22 -12 40 -26 23 -17 41 -24 55 -19 22 7 27 22 35 111 4 47 2 64 -10 74 -18 15 -65 5 -65 -15 0 -25 -16 -25 -50 0 -41 30 -76 32 -90 6z m113 -71 l48 -45 -2 55 c-3 51 -1 55 20 58 18 3 22 0 17 -15 -3 -10 -7 -46 -8 -80 -2 -35 -6 -63 -9 -63 -3 0 -28 19 -55 42 -96 82 -87 81 -82 15 4 -47 2 -57 -9 -52 -8 3 -19 5 -24 5 -5 0 -4 11 1 26 6 14 10 50 10 81 l0 56 23 -19 c12 -10 44 -39 70 -64z"/> <path d="M2626 1281 c-19 -21 -20 -44 -5 -73 9 -17 6 -25 -20 -52 -34 -35 -39 -57 -16 -76 13 -11 32 -11 100 -1 71 11 89 17 105 38 11 14 20 30 20 36 0 14 -108 115 -141 133 -24 12 -28 11 -43 -5z m149 -111 c10 0 11 -7 6 -27 -5 -16 -14 -27 -20 -25 -21 4 -145 -20 -160 -32 -12 -9 -13 -7 -8 14 4 14 7 28 7 32 0 3 8 4 18 1 23 -6 38 12 47 55 6 29 4 34 -14 39 -22 6 -25 12 -15 37 5 13 19 4 66 -39 32 -30 65 -55 73 -55z"/> <path d="M2681 1168 c-10 -27 3 -33 38 -20 l23 8 -26 17 c-26 17 -27 17 -35 -5z"/> <path d="M299 1224 c-36 -35 -36 -35 -71 -21 -26 11 -39 12 -47 4 -18 -18 -13 -62 9 -82 15 -14 19 -26 14 -50 -6 -32 14 -65 38 -65 25 0 150 44 163 57 21 21 19 31 -14 62 -26 25 -28 29 -16 51 14 25 5 56 -19 72 -17 12 -19 11 -57 -28z m61 -9 c0 -14 -3 -25 -7 -25 -5 0 -19 -16 -32 -35 -31 -46 -18 -66 31 -47 36 13 33 14 42 -14 5 -18 2 -21 -22 -22 -16 0 -54 -9 -85 -20 -60 -20 -67 -19 -67 10 0 14 8 18 38 18 l37 1 -40 34 c-21 18 -43 33 -48 32 -6 -1 -13 10 -18 26 -9 34 -6 34 43 -4 21 -17 40 -30 42 -28 1 2 18 25 36 52 38 53 50 59 50 22z"/> <path d="M2967 1226 c-9 -21 -17 -44 -17 -52 0 -33 -57 -189 -105 -289 -190 -394 -546 -683 -976 -794 -173 -44 -322 -54 -521 -36 -501 48 -952 353 -1181 800 -38 74 -93 221 -112 297 -10 37 -23 75 -31 85 -12 17 -13 16 -14 -5 0 -37 38 -176 71 -260 33 -82 112 -237 135 -263 8 -8 14 -19 14 -23 0 -15 116 -154 191 -228 197 -196 433 -327 719 -400 124 -32 127 -32 365 -32 237 0 241 1 360 32 127 34 153 43 280 100 106 47 179 91 273 161 229 173 398 393 500 651 37 94 75 240 70 271 -4 22 -6 20 -21 -15z"/> <path d="M2512 983 c-35 -50 -62 -112 -56 -128 10 -24 43 -39 59 -25 20 17 54 3 61 -25 3 -13 14 -31 24 -40 26 -23 51 -5 86 64 32 63 34 69 22 93 -10 20 -129 88 -156 88 -12 0 -29 -12 -40 -27z m112 -37 c27 -14 55 -26 62 -26 18 0 19 2 -16 -61 -16 -30 -30 -62 -30 -71 0 -20 -8 -22 -28 -9 -11 6 -7 19 17 57 28 45 29 50 14 62 -25 18 -30 15 -44 -23 -14 -38 -17 -39 -38 -26 -12 8 -12 12 2 26 35 34 38 51 12 63 -23 11 -26 9 -45 -28 -11 -21 -20 -46 -20 -55 0 -17 -9 -19 -28 -7 -9 7 -2 26 29 80 33 57 44 69 53 59 6 -8 33 -26 60 -41z"/> <path d="M383 953 c-88 -108 -95 -126 -64 -161 17 -21 24 -22 109 -16 69 5 96 11 108 25 20 22 6 52 -34 71 -23 11 -27 20 -27 54 0 42 -17 74 -40 74 -7 0 -31 -21 -52 -47z m67 6 c9 -17 8 -23 -7 -34 -17 -13 -17 -15 0 -50 15 -31 21 -36 42 -31 18 5 27 1 35 -13 5 -11 10 -21 10 -23 0 -2 -33 -3 -72 -3 -40 0 -83 -4 -95 -8 -28 -10 -53 27 -30 46 21 18 87 113 87 126 0 18 19 12 30 -10z"/> <path d="M394 868 c-26 -33 -25 -38 5 -38 34 0 38 7 18 34 -11 15 -15 15 -23 4z"/> <path d="M2388 776 c-16 -11 -22 -28 -19 -53 2 -18 123 -113 143 -113 10 0 25 11 33 24 20 30 11 47 -54 97 -67 52 -83 59 -103 45z m72 -56 c30 -27 60 -50 67 -50 19 0 16 -14 -7 -35 -16 -14 -20 -15 -20 -4 0 16 -90 89 -109 89 -6 0 -11 3 -11 6 0 7 20 44 23 44 2 0 27 -22 57 -50z"/> </g> </svg> 