<?xml version="1.0" standalone="no"?>
<!DOCTYPE svg PUBLIC "-//W3C//DTD SVG 20010904//EN"
 "http://www.w3.org/TR/2001/REC-SVG-20010904/DTD/svg10.dtd">
<svg version="1.0" xmlns="http://www.w3.org/2000/svg"
 width="300.000000pt" height="301.000000pt" viewBox="0 0 300.000000 301.000000"
 preserveAspectRatio="xMidYMid meet">
<metadata>
Created by potrace 1.10, written by Peter Selinger 2001-2011
</metadata>
<g transform="translate(0.000000,301.000000) scale(0.100000,-0.100000)"
fill="#fe696a" stroke="none">
<path d="M1370 2974 c-263 -31 -487 -110 -685 -243 -334 -222 -558 -558 -637
-953 -29 -146 -31 -394 -4 -537 100 -543 484 -982 1006 -1149 168 -54 256 -67
455 -66 195 0 292 15 465 71 111 35 289 126 392 199 110 79 268 238 347 349
116 164 203 369 248 585 27 131 25 420 -6 560 -87 406 -310 731 -654 954 -223
146 -478 223 -757 231 -74 2 -151 1 -170 -1z m167 -27 c7 -4 14 -3 18 2 3 6
11 8 18 6 7 -2 46 -6 87 -10 63 -5 110 -13 175 -29 6 -2 24 -6 40 -10 54 -14
129 -38 165 -54 145 -63 257 -124 298 -162 12 -11 25 -21 29 -21 5 0 37 -26
72 -57 35 -31 69 -60 76 -64 12 -7 96 -103 149 -170 123 -155 235 -410 271
-616 64 -375 -11 -747 -214 -1062 -113 -175 -303 -355 -490 -464 -55 -32 -131
-68 -139 -66 -1 0 -15 -6 -30 -14 -31 -16 -201 -71 -247 -80 -70 -14 -83 -16
-140 -23 -77 -10 -226 -10 -335 0 -83 8 -250 45 -307 69 -15 6 -30 12 -33 12
-79 15 -353 174 -446 258 -82 75 -177 176 -210 225 -19 29 -41 59 -50 67 -8 9
-12 22 -8 28 4 7 4 10 -1 6 -10 -9 -21 6 -68 94 -20 38 -33 68 -29 68 4 0 2 4
-4 8 -14 10 -80 186 -98 265 -36 155 -45 308 -31 512 5 75 52 274 79 340 10
22 16 40 16 40 -8 0 115 228 154 285 66 97 296 330 326 330 6 0 10 5 10 10 0
6 7 10 15 10 8 0 15 4 15 10 0 11 169 113 188 113 6 0 12 3 12 7 0 3 17 12 38
19 20 7 56 22 78 32 122 57 502 116 551 86z"/>
<path d="M1319 2556 c-2 -2 -22 -6 -44 -9 -22 -3 -67 -12 -100 -22 -33 -9 -67
-18 -75 -20 -8 -2 -16 -4 -17 -5 -2 -2 -6 -3 -10 -5 -17 -4 -109 -46 -123 -55
-8 -5 -28 -17 -45 -26 -52 -28 -178 -127 -228 -179 -74 -77 -180 -242 -216
-336 -54 -141 -74 -240 -75 -374 -1 -151 6 -208 38 -316 77 -261 236 -471 464
-612 186 -116 335 -155 597 -158 94 0 175 0 180 1 25 6 30 7 35 9 3 2 15 5 28
7 45 8 57 11 77 19 11 5 54 21 95 37 274 107 483 320 603 613 31 78 44 127 63
255 9 59 2 259 -10 305 -7 28 -12 58 -10 68 1 9 -1 17 -5 17 -9 0 -26 67 -23
83 2 4 -4 15 -13 23 -8 9 -15 22 -15 29 0 8 -12 36 -27 62 -14 26 -35 64 -46
82 -44 79 -161 215 -238 276 -133 106 -296 180 -482 220 -61 14 -366 22 -378
11z m397 -40 c595 -128 955 -723 788 -1304 -102 -353 -379 -622 -742 -719 -88
-24 -114 -26 -287 -26 -173 0 -199 2 -287 26 -430 115 -736 473 -777 908 -39
416 170 808 539 1011 83 46 215 92 305 107 39 6 81 13 95 15 51 9 297 -3 366
-18z"/>
<path d="M995 2400 c-39 -26 -25 -26 17 0 18 11 29 20 23 20 -5 0 -23 -9 -40
-20z"/>
<path d="M900 2340 c-135 -98 -273 -265 -340 -414 -103 -227 -118 -513 -39
-751 79 -236 236 -433 452 -564 57 -35 44 -18 -19 24 -87 57 -207 169 -264
245 -71 94 -147 254 -176 370 -15 59 -19 111 -19 240 0 91 4 185 8 208 23 125
82 262 162 381 49 74 171 211 187 211 5 0 21 11 36 24 15 13 38 34 52 45 42
34 19 23 -40 -19z"/>
<path d="M1969 1913 c-5 -16 -26 -70 -46 -120 l-36 -93 -502 0 c-528 0 -525 0
-525 -45 0 -45 -1 -45 507 -45 266 0 483 -3 483 -6 0 -3 -5 -14 -10 -25 -10
-18 -26 -19 -458 -19 -471 0 -472 0 -472 -45 0 -45 1 -45 457 -45 l434 0 -16
-29 -15 -29 -375 0 c-391 1 -405 -1 -405 -42 0 -9 8 -24 18 -33 17 -15 57 -17
374 -17 l356 0 -11 -30 -11 -30 -331 0 c-348 0 -355 -1 -355 -45 0 -44 5 -45
385 -45 l362 0 131 333 131 332 163 5 c90 3 169 9 176 13 19 13 15 65 -7 77
-12 6 -97 10 -206 10 l-185 0 -11 -27z m391 -22 c0 -5 -72 -11 -160 -13 -125
-2 -162 -6 -173 -18 -8 -8 -72 -160 -142 -337 l-127 -323 -350 0 c-275 0 -349
3 -346 13 4 9 81 13 332 15 l326 2 20 33 c25 41 25 63 1 77 -13 6 -143 10
-355 10 -184 0 -341 3 -350 6 -49 19 21 24 367 26 l382 3 19 38 c17 36 17 39
1 57 -17 19 -37 20 -439 22 -274 2 -420 6 -419 13 2 6 161 11 445 13 292 1
446 6 454 13 7 6 16 24 19 40 13 60 25 59 -500 59 -377 0 -476 3 -473 13 4 9
114 13 500 15 456 2 496 4 510 20 9 9 33 61 54 115 l37 97 184 0 c103 0 183
-4 183 -9z"/>
<path d="M1091 1065 c-35 -30 -55 -82 -45 -119 3 -15 20 -40 36 -56 24 -25 38
-30 77 -30 53 0 84 18 106 60 57 110 -80 223 -174 145z m109 -55 c25 -25 25
-52 1 -74 -44 -40 -115 8 -89 58 22 41 57 47 88 16z"/>
<path d="M1598 1072 c-30 -18 -58 -67 -58 -102 0 -29 26 -76 52 -94 32 -23
104 -20 138 4 34 24 54 78 45 120 -3 16 -22 43 -41 60 -40 35 -92 40 -136 12z
m87 -48 c9 -4 21 -18 26 -32 22 -58 -60 -101 -95 -50 -21 30 -20 44 4 68 21
21 37 24 65 14z m-81 -110 c3 -8 2 -12 -4 -9 -6 3 -10 10 -10 16 0 14 7 11 14
-7z"/>
</g>
</svg>
