<?xml version="1.0" standalone="no"?>
<!DOCTYPE svg PUBLIC "-//W3C//DTD SVG 20010904//EN"
 "http://www.w3.org/TR/2001/REC-SVG-20010904/DTD/svg10.dtd">
<svg version="1.0" xmlns="http://www.w3.org/2000/svg"
 width="300.000000pt" height="301.000000pt" viewBox="0 0 300.000000 301.000000"
 preserveAspectRatio="xMidYMid meet">
<metadata>
Created by potrace 1.10, written by Peter Selinger 2001-2011
</metadata>
<g transform="translate(0.000000,301.000000) scale(0.100000,-0.100000)"
fill="#fe696a" stroke="none">
<path d="M1370 2974 c-263 -31 -487 -110 -685 -243 -334 -222 -558 -558 -637
-953 -29 -146 -31 -394 -4 -537 111 -604 560 -1062 1170 -1193 145 -31 427
-31 571 0 150 32 258 70 382 133 150 76 257 153 378 274 208 208 341 454 407
753 32 144 32 434 -1 582 -88 407 -310 731 -654 954 -155 102 -348 178 -532
211 -89 15 -327 27 -395 19z m365 -39 c44 -8 94 -17 110 -20 57 -11 185 -57
185 -66 0 -6 4 -8 9 -4 21 12 297 -137 309 -167 2 -4 7 -6 11 -4 4 3 27 -13
51 -36 25 -22 57 -49 72 -59 33 -24 160 -167 208 -235 121 -170 219 -403 245
-584 4 -24 9 -48 11 -51 9 -15 11 -307 3 -374 -15 -127 -18 -139 -44 -229 -42
-146 -106 -289 -175 -391 -15 -22 -39 -59 -55 -82 -34 -52 -205 -229 -260
-269 -22 -16 -42 -32 -45 -35 -3 -4 -23 -16 -45 -28 -22 -11 -35 -21 -30 -21
13 0 -156 -99 -170 -100 -5 0 -22 -7 -37 -14 -28 -15 -164 -63 -202 -73 -36
-9 -158 -33 -195 -39 -157 -25 -497 5 -611 53 -8 3 -24 8 -35 10 -11 2 -33 10
-50 17 -16 8 -54 24 -83 35 -64 25 -166 80 -170 92 -2 5 -8 9 -14 9 -10 0 -97
57 -113 75 -5 6 -26 23 -47 38 -61 45 -252 247 -233 247 3 0 -1 7 -9 16 -9 8
-13 21 -9 27 3 7 3 9 -2 5 -4 -4 -13 -2 -19 5 -20 22 -47 67 -39 67 5 0 3 4
-3 8 -14 8 -78 122 -69 122 3 0 -1 10 -9 23 -35 53 -87 223 -112 367 -15 86
-21 329 -9 405 23 147 62 302 87 349 7 11 13 23 13 26 6 22 60 135 94 195 46
80 115 168 204 261 102 106 191 177 312 248 105 62 113 66 125 66 5 0 38 13
72 29 76 35 174 65 188 56 5 -3 10 -2 10 3 0 9 100 31 140 31 23 0 145 13 148
16 8 7 219 -8 287 -20z"/>
<path d="M1235 2539 c-49 -10 -95 -17 -102 -15 -6 3 -14 -2 -17 -10 -3 -8 -9
-13 -13 -12 -10 4 -143 -51 -163 -67 -8 -6 -36 -22 -62 -36 -27 -13 -48 -27
-48 -31 0 -4 -12 -14 -27 -22 -44 -22 -160 -143 -223 -232 -49 -69 -118 -194
-127 -229 -1 -5 -14 -48 -28 -94 -40 -132 -58 -305 -42 -391 4 -19 8 -51 11
-70 6 -46 49 -192 76 -255 42 -99 156 -266 219 -323 57 -51 128 -109 171 -138
92 -64 260 -136 350 -150 19 -3 42 -9 50 -14 8 -4 76 -8 150 -10 74 -1 155 -3
180 -4 25 -1 52 1 60 5 8 4 31 9 50 12 69 10 106 20 158 43 28 13 52 21 52 18
0 -2 39 16 86 41 236 125 423 335 503 565 13 36 26 72 29 80 8 22 9 30 21 88
6 30 13 57 16 62 7 11 7 247 0 280 -3 14 -7 39 -9 55 -3 17 -16 68 -29 115
-14 46 -23 89 -20 95 4 5 3 7 -2 3 -4 -4 -19 16 -32 44 -123 265 -336 460
-608 555 -142 50 -218 62 -390 62 -109 0 -174 -6 -240 -20z m481 -23 c595
-128 955 -723 788 -1304 -102 -353 -379 -622 -742 -719 -88 -24 -114 -26 -287
-26 -174 0 -198 2 -288 26 -743 199 -1028 1089 -537 1676 149 177 386 315 605
350 39 6 81 13 95 15 51 9 297 -3 366 -18z"/>
<path d="M1035 2420 c-3 -6 1 -7 9 -4 18 7 21 14 7 14 -6 0 -13 -4 -16 -10z"/>
<path d="M930 2359 c-151 -101 -298 -273 -370 -433 -75 -164 -107 -394 -81
-577 23 -160 95 -334 192 -466 46 -62 179 -197 187 -189 2 3 -17 24 -43 48
-84 75 -164 187 -225 313 -81 167 -95 231 -95 435 0 91 4 185 8 208 48 256
221 515 442 660 43 29 75 52 70 52 -6 0 -44 -23 -85 -51z"/>
<path d="M1969 1913 c-5 -16 -26 -70 -46 -120 l-36 -93 -502 0 c-528 0 -525 0
-525 -45 0 -45 -1 -45 507 -45 266 0 483 -3 483 -6 0 -3 -5 -14 -10 -25 -10
-18 -26 -19 -458 -19 -471 0 -472 0 -472 -45 0 -45 1 -45 457 -45 l434 0 -15
-29 -15 -29 -376 0 c-390 1 -405 -1 -405 -42 0 -9 8 -24 18 -33 17 -15 57 -17
374 -17 l356 0 -11 -30 -11 -30 -331 0 c-348 0 -355 -1 -355 -45 0 -44 5 -45
385 -45 l362 0 131 333 131 332 163 5 c90 3 169 9 176 13 19 13 15 65 -7 77
-12 6 -97 10 -206 10 l-185 0 -11 -27z m391 -22 c0 -5 -72 -11 -161 -13 -144
-3 -162 -5 -175 -22 -7 -11 -70 -162 -140 -338 l-126 -318 -350 0 c-275 0
-349 3 -346 13 4 9 81 13 332 15 l326 2 20 33 c25 41 25 63 1 77 -13 6 -143
10 -355 10 -184 0 -341 3 -350 6 -49 19 21 24 367 26 l382 3 19 38 c17 36 17
39 1 57 -17 19 -37 20 -438 22 -326 2 -421 6 -425 16 -3 9 91 12 446 12 483 0
464 -2 477 53 15 58 28 57 -497 57 -379 0 -479 3 -476 13 4 9 114 13 500 15
456 2 496 4 510 20 9 9 33 61 54 115 l37 97 184 0 c103 0 183 -4 183 -9z"/>
<path d="M1091 1065 c-35 -30 -55 -82 -45 -119 3 -15 20 -40 36 -56 24 -25 38
-30 77 -30 53 0 84 18 106 60 57 110 -80 223 -174 145z m109 -55 c24 -24 25
-38 4 -68 -35 -51 -120 -2 -92 52 22 41 57 47 88 16z"/>
<path d="M1598 1072 c-30 -18 -58 -67 -58 -102 0 -29 26 -76 52 -94 32 -23
104 -20 138 4 34 24 54 78 45 120 -3 16 -22 43 -41 60 -40 35 -92 40 -136 12z
m16 -31 c-10 -10 -21 -16 -24 -14 -3 3 4 11 14 19 28 20 33 17 10 -5z m71 -17
c9 -4 21 -18 26 -32 22 -58 -60 -101 -95 -50 -21 30 -20 44 4 68 21 21 37 24
65 14z m-81 -110 c3 -8 2 -12 -4 -9 -6 3 -10 10 -10 16 0 14 7 11 14 -7z"/>
<path d="M895 666 c35 -31 99 -70 90 -57 -5 10 -76 60 -105 75 -8 4 -1 -4 15
-18z"/>
<path d="M2539 2335 c-13 -8 -32 -18 -41 -21 -10 -3 -18 -10 -18 -15 0 -5 -6
-9 -12 -9 -7 0 -28 -13 -47 -29 -33 -27 -34 -28 -16 -54 9 -15 24 -27 32 -27
8 0 13 -8 11 -17 -2 -11 6 -22 19 -28 15 -6 21 -16 18 -26 -3 -10 5 -29 18
-45 l24 -27 52 39 c29 21 57 38 63 36 5 -1 7 2 4 7 -3 5 3 11 14 14 27 7 26
48 -1 72 -17 16 -25 17 -49 8 -39 -15 -47 -1 -22 40 19 33 19 33 -3 64 -20 30
-23 31 -46 18z m41 -52 c0 -6 -3 -13 -7 -15 -5 -1 -20 -22 -36 -45 l-27 -43
27 0 c16 0 44 5 63 10 31 9 37 8 54 -12 18 -22 18 -23 0 -27 -22 -4 -104 -57
-121 -78 -10 -12 -13 -11 -23 7 -6 12 -10 22 -8 23 58 29 101 54 105 61 4 5
-1 7 -10 3 -8 -3 -44 -9 -78 -13 l-61 -7 36 57 c20 31 36 59 36 62 0 8 -63
-36 -78 -55 -12 -15 -15 -14 -27 3 -13 17 -11 20 23 37 21 11 53 32 72 48 31
26 36 27 47 12 7 -9 13 -21 13 -28z"/>
<path d="M295 2104 c-20 -27 -55 -110 -55 -131 0 -6 26 -23 57 -38 32 -14 60
-30 63 -35 3 -4 17 -11 31 -15 21 -5 27 -2 37 20 17 37 15 51 -10 62 -23 10
-23 11 7 23 49 20 58 26 69 42 14 23 -10 48 -46 48 -20 0 -37 8 -50 25 -27 35
-76 34 -103 -1z m83 -6 c7 -7 12 -22 12 -34 0 -20 3 -21 43 -14 48 9 52 8 39
-15 -6 -11 -24 -18 -51 -19 -41 -2 -61 -16 -61 -43 0 -11 37 -29 53 -25 8 2 9
-11 1 -31 -4 -11 -18 -8 -67 19 -34 19 -70 34 -80 34 -15 0 -13 8 14 63 17 34
37 65 43 69 17 11 41 9 54 -4z"/>
<path d="M310 2039 c-24 -45 -24 -44 6 -53 17 -5 24 1 39 33 31 69 -11 88 -45
20z"/>
<path d="M2720 2030 c-8 -5 -44 -19 -80 -31 -36 -12 -71 -26 -77 -32 -18 -14
-16 -41 5 -60 19 -17 33 -14 124 26 21 10 41 17 46 17 5 0 15 6 21 14 10 11 9
21 -4 45 -18 35 -15 34 -35 21z m19 -32 c7 -20 2 -24 -63 -46 -39 -14 -74 -30
-78 -36 -8 -13 -13 -8 -23 22 -5 17 -3 22 7 20 18 -4 138 42 138 53 0 17 11 9
19 -13z"/>
<path d="M2692 1826 c-47 -7 -77 -17 -82 -27 -14 -24 11 -64 43 -67 33 -4 34
-9 2 -34 -31 -24 -34 -72 -5 -88 16 -8 23 -7 37 10 15 17 25 19 61 14 36 -5
47 -3 67 16 21 20 23 29 19 69 -3 25 -10 63 -15 84 -11 42 -7 41 -127 23z
m114 -78 c5 -49 3 -72 -6 -83 -17 -20 -57 -19 -69 3 -10 15 -14 14 -41 -15
-35 -38 -40 -40 -40 -13 0 11 15 34 34 50 26 23 32 35 28 56 -5 26 -19 28 -63
10 -12 -5 -18 -1 -21 18 -4 20 -1 24 16 23 40 -3 136 15 136 26 0 7 3 7 9 2 6
-6 13 -40 17 -77z"/>
<path d="M2734 1758 c3 -13 6 -33 6 -46 0 -25 26 -40 42 -24 6 6 7 27 3 51 -6
35 -10 41 -32 41 -21 0 -24 -4 -19 -22z"/>
<path d="M285 1809 c-33 -11 -68 -18 -77 -15 -20 5 -33 -9 -41 -42 -6 -25 1
-34 68 -87 21 -16 51 -41 67 -54 28 -23 29 -23 46 -5 20 22 17 64 -4 80 -21
16 -14 36 19 57 23 14 28 23 25 50 -4 40 -21 43 -103 16z m88 -23 c-4 -18 -13
-26 -31 -28 -21 -2 -28 -10 -33 -38 -7 -35 5 -65 22 -54 5 3 9 -9 9 -26 l0
-32 -52 46 c-29 26 -64 52 -79 58 -20 9 -24 17 -21 38 3 20 9 26 20 23 18 -4
140 21 150 31 12 13 19 5 15 -18z"/>
<path d="M246 1741 c-17 -7 -16 -8 7 -24 34 -22 37 -22 37 8 0 25 -10 29 -44
16z"/>
<path d="M265 1539 c-11 -4 -34 -8 -51 -8 -56 -2 -73 -26 -75 -106 -2 -104 -4
-103 103 -99 51 2 96 8 102 14 17 17 9 145 -11 177 -19 30 -35 35 -68 22z m47
-36 c14 -13 18 -31 18 -87 l0 -71 -85 0 -85 0 0 66 c0 81 14 105 58 96 17 -4
34 -2 37 3 9 15 36 12 57 -7z"/>
<path d="M261 1476 c-6 -7 -10 -32 -9 -55 1 -38 3 -41 30 -41 26 0 28 2 28 43
0 57 -24 83 -49 53z"/>
<path d="M186 1463 c-3 -10 -5 -33 -4 -50 1 -28 5 -33 25 -33 22 0 24 3 21 47
-2 35 -7 49 -20 51 -9 2 -19 -5 -22 -15z"/>
<path d="M2653 1538 c-4 -7 -13 -47 -19 -88 -11 -70 -10 -76 8 -92 11 -10 26
-18 34 -18 19 0 34 33 27 61 -6 22 -5 23 13 9 10 -8 27 -22 37 -31 9 -9 29
-22 43 -30 23 -12 27 -11 40 6 8 10 14 42 15 69 0 28 2 61 5 72 5 29 -19 48
-51 40 -23 -6 -32 -26 -26 -59 2 -9 -87 52 -95 65 -8 12 -22 10 -31 -4z m105
-92 l42 -40 2 39 c0 22 1 48 0 58 -1 10 5 17 17 17 16 0 18 -6 14 -47 -3 -27
-8 -63 -12 -82 l-6 -33 -50 44 c-93 81 -88 80 -84 20 4 -50 3 -52 -21 -52 -19
0 -21 3 -12 12 7 7 12 41 12 82 l0 69 28 -24 c15 -13 46 -41 70 -63z"/>
<path d="M2623 1274 c-16 -25 -16 -28 0 -55 17 -31 13 -59 -8 -59 -8 0 -23
-13 -34 -29 -20 -28 -20 -29 -1 -46 19 -17 39 -16 184 11 41 8 50 72 14 97
-13 9 -45 36 -73 61 -27 25 -53 46 -57 46 -4 0 -15 -12 -25 -26z m144 -100
c19 -5 20 -9 11 -34 -6 -17 -15 -27 -23 -24 -18 7 -137 -15 -154 -29 -12 -10
-13 -8 -8 13 4 14 7 28 7 31 0 3 11 4 24 2 22 -5 26 0 36 36 12 45 7 61 -17
61 -10 0 -13 6 -9 16 3 9 6 20 6 25 0 5 24 -14 53 -41 28 -28 62 -53 74 -56z"/>
<path d="M2681 1168 c-11 -30 -10 -31 29 -21 l33 9 -27 17 c-26 17 -27 17 -35
-5z"/>
<path d="M318 1243 c-9 -10 -21 -28 -27 -40 -14 -28 -31 -29 -61 -3 -13 12
-30 18 -38 15 -7 -3 -16 -5 -18 -5 -2 0 -4 -13 -4 -29 0 -20 9 -36 27 -51 23
-18 25 -24 15 -41 -15 -23 -6 -65 15 -73 9 -4 40 3 70 14 29 11 63 20 74 20
28 0 47 21 41 45 -8 32 -23 46 -43 40 -25 -8 -24 10 1 42 18 23 18 27 4 54
-17 33 -34 37 -56 12z m42 -34 c0 -10 -3 -19 -7 -19 -14 0 -55 -69 -48 -79 8
-14 52 -14 60 -1 11 17 23 11 28 -16 3 -17 1 -24 -8 -20 -13 5 -109 -19 -137
-34 -11 -6 -18 -5 -22 6 -9 24 -7 35 7 33 6 -1 23 -1 37 0 24 2 24 3 -15 36
-21 18 -42 32 -46 29 -8 -4 -19 20 -19 43 0 10 12 5 40 -17 46 -36 43 -37 91
38 22 34 39 34 39 1z"/>
<path d="M2515 977 c-71 -114 -71 -113 -50 -137 21 -24 38 -25 55 -5 10 12 15
12 36 -2 13 -8 24 -23 24 -33 0 -23 34 -52 53 -44 19 7 77 123 77 154 0 14
-12 26 -37 38 -21 9 -40 19 -43 22 -12 12 -69 40 -82 40 -7 0 -22 -15 -33 -33z
m107 -30 c26 -15 54 -27 62 -27 21 0 21 1 -19 -70 -19 -34 -32 -66 -29 -71 7
-11 -7 -11 -24 0 -11 6 -7 19 17 57 28 45 29 50 14 62 -25 18 -30 15 -44 -23
-14 -38 -17 -40 -39 -24 -11 8 -12 12 -2 16 7 2 19 17 27 33 13 26 13 28 -10
38 -23 11 -26 8 -47 -31 -12 -23 -21 -48 -20 -54 3 -15 -7 -16 -28 -3 -12 8
-12 11 2 27 9 10 28 42 43 71 22 45 28 51 38 40 7 -8 33 -27 59 -41z"/>
<path d="M403 973 c-29 -46 -77 -107 -91 -116 -16 -10 -8 -52 13 -73 15 -15
75 -19 75 -6 0 5 30 9 66 9 36 1 70 5 76 11 15 15 -19 75 -41 69 -29 -7 -45
20 -31 53 10 24 9 33 -7 54 -23 33 -38 32 -60 -1z m48 -14 c9 -17 7 -23 -10
-35 l-20 -14 21 -36 c17 -29 25 -34 44 -30 17 5 26 1 34 -13 5 -11 10 -21 10
-23 0 -2 -37 -2 -82 -1 -54 1 -85 -3 -90 -10 -5 -8 -12 -6 -22 8 -17 23 -20
35 -7 35 10 0 91 114 91 129 0 18 19 12 31 -10z"/>
<path d="M394 868 c-26 -33 -25 -38 5 -38 34 0 38 7 18 34 -11 15 -15 15 -23
4z"/>
<path d="M2381 766 c-13 -14 -22 -29 -20 -35 6 -16 141 -121 156 -121 7 0 20
12 29 26 19 29 26 19 -72 102 -34 29 -64 52 -66 52 -3 0 -15 -11 -27 -24z m39
-8 c1 -15 92 -88 109 -88 16 0 13 -16 -5 -31 -11 -9 -18 -9 -22 -2 -14 21
-106 92 -114 87 -12 -7 -10 3 4 26 14 23 28 26 28 8z"/>
</g>
</svg>
